<svg xmlns="http://www.w3.org/2000/svg" width="1200" height="630" viewBox="0 0 1200 630">
  <defs>
    <linearGradient id="bg" x1="0" y1="0" x2="1" y2="1">
      <stop offset="0%" stop-color="#0a0a0f"/>
      <stop offset="100%" stop-color="#12121a"/>
    </linearGradient>
    <linearGradient id="amber" x1="0" y1="0" x2="1" y2="1">
      <stop offset="0%" stop-color="#f59e0b"/>
      <stop offset="100%" stop-color="#06b6d4"/>
    </linearGradient>
    <radialGradient id="glow1" cx="50%" cy="50%">
      <stop offset="0%" stop-color="#f59e0b" stop-opacity="0.1"/>
      <stop offset="100%" stop-color="#f59e0b" stop-opacity="0"/>
    </radialGradient>
  </defs>
  <rect width="1200" height="630" fill="url(#bg)"/>
  <rect width="1200" height="630" fill="url(#glow1)"/>
  <!-- Camera lens motif -->
  <circle cx="1000" cy="315" r="180" stroke="#f59e0b" stroke-width="2" fill="none" opacity="0.08"/>
  <circle cx="1000" cy="315" r="130" stroke="#d97706" stroke-width="1.5" fill="none" opacity="0.1"/>
  <circle cx="1000" cy="315" r="70" stroke="#06b6d4" stroke-width="2" fill="none" opacity="0.12"/>
  <circle cx="1000" cy="315" r="25" fill="#06b6d4" opacity="0.08"/>
  <!-- Aperture blades -->
  <path d="M1000 185 L1040 220 L980 220 Z" fill="#d97706" opacity="0.06"/>
  <path d="M1130 315 L1095 355 L1095 275 Z" fill="#d97706" opacity="0.06"/>
  <path d="M1000 445 L960 410 L1040 410 Z" fill="#d97706" opacity="0.06"/>
  <path d="M870 315 L905 275 L905 355 Z" fill="#d97706" opacity="0.06"/>
  <!-- Floating sparkles -->
  <circle cx="150" cy="150" r="3" fill="#f59e0b" opacity="0.3"/>
  <circle cx="300" cy="100" r="2" fill="#06b6d4" opacity="0.25"/>
  <circle cx="500" cy="180" r="2.5" fill="#8b5cf6" opacity="0.2"/>
  <circle cx="750" cy="120" r="2" fill="#fbbf24" opacity="0.15"/>
  <!-- Badge -->
  <rect x="80" y="180" width="110" height="32" rx="16" fill="#3b82f6" opacity="0.15"/>
  <text x="135" y="201" font-family="Inter, system-ui, sans-serif" font-size="13" font-weight="600" fill="#60a5fa" text-anchor="middle">TUTORIAL</text>
  <!-- Title -->
  <text x="80" y="268" font-family="Inter, system-ui, sans-serif" font-size="40" font-weight="800" fill="white">Getting the Best Results</text>
  <text x="80" y="320" font-family="Inter, system-ui, sans-serif" font-size="40" font-weight="800" fill="url(#amber)">with FLUX Pro Models</text>
  <!-- Subtitle -->
  <text x="80" y="375" font-family="Inter, system-ui, sans-serif" font-size="18" fill="#9ca3af">Prompt engineering techniques to unlock maximum quality.</text>
  <!-- Tip chips -->
  <rect x="80" y="410" width="120" height="28" rx="14" fill="#f59e0b" opacity="0.1"/>
  <text x="140" y="429" font-family="Inter, system-ui, sans-serif" font-size="12" fill="#fbbf24" text-anchor="middle">Style Tips</text>
  <rect x="215" y="410" width="140" height="28" rx="14" fill="#06b6d4" opacity="0.1"/>
  <text x="285" y="429" font-family="Inter, system-ui, sans-serif" font-size="12" fill="#22d3ee" text-anchor="middle">Composition</text>
  <rect x="370" y="410" width="110" height="28" rx="14" fill="#8b5cf6" opacity="0.1"/>
  <text x="425" y="429" font-family="Inter, system-ui, sans-serif" font-size="12" fill="#a78bfa" text-anchor="middle">Lighting</text>
  <!-- Bottom bar -->
  <rect x="0" y="590" width="1200" height="40" fill="#f59e0b" opacity="0.08"/>
  <text x="80" y="616" font-family="Inter, system-ui, sans-serif" font-size="14" fill="#d97706">tynkerlab.ai</text>
  <text x="1120" y="616" font-family="Inter, system-ui, sans-serif" font-size="14" fill="#6b7280" text-anchor="end">Feb 24, 2026</text>
</svg>
