<svg xmlns="http://www.w3.org/2000/svg" width="1200" height="630" viewBox="0 0 1200 630">
  <defs>
    <linearGradient id="bg" x1="0" y1="0" x2="1" y2="1">
      <stop offset="0%" stop-color="#0a0a0f"/>
      <stop offset="100%" stop-color="#12121a"/>
    </linearGradient>
    <linearGradient id="amber" x1="0" y1="0" x2="1" y2="1">
      <stop offset="0%" stop-color="#f59e0b"/>
      <stop offset="100%" stop-color="#06b6d4"/>
    </linearGradient>
    <radialGradient id="glow1" cx="65%" cy="55%">
      <stop offset="0%" stop-color="#06b6d4" stop-opacity="0.1"/>
      <stop offset="100%" stop-color="#06b6d4" stop-opacity="0"/>
    </radialGradient>
  </defs>
  <rect width="1200" height="630" fill="url(#bg)"/>
  <rect width="1200" height="630" fill="url(#glow1)"/>
  <!-- Gallery grid motif -->
  <rect x="850" y="180" width="100" height="100" rx="8" stroke="#f59e0b" stroke-width="1.5" fill="#f59e0b" fill-opacity="0.03" opacity="0.15"/>
  <rect x="965" y="180" width="100" height="100" rx="8" stroke="#06b6d4" stroke-width="1.5" fill="#06b6d4" fill-opacity="0.03" opacity="0.15"/>
  <rect x="1080" y="180" width="100" height="100" rx="8" stroke="#8b5cf6" stroke-width="1.5" fill="#8b5cf6" fill-opacity="0.03" opacity="0.15"/>
  <rect x="850" y="295" width="100" height="100" rx="8" stroke="#ec4899" stroke-width="1.5" fill="#ec4899" fill-opacity="0.03" opacity="0.12"/>
  <rect x="965" y="295" width="100" height="100" rx="8" stroke="#f59e0b" stroke-width="1.5" fill="#f59e0b" fill-opacity="0.03" opacity="0.12"/>
  <rect x="1080" y="295" width="100" height="100" rx="8" stroke="#06b6d4" stroke-width="1.5" fill="#06b6d4" fill-opacity="0.03" opacity="0.12"/>
  <!-- Stars in gallery cells -->
  <path d="M900 230 L903 220 L910 218 L903 216 L900 206 L897 216 L890 218 L897 220 Z" fill="#f59e0b" opacity="0.15"/>
  <path d="M1015 230 L1018 220 L1025 218 L1018 216 L1015 206 L1012 216 L1005 218 L1012 220 Z" fill="#06b6d4" opacity="0.15"/>
  <path d="M1130 230 L1133 220 L1140 218 L1133 216 L1130 206 L1127 216 L1120 218 L1127 220 Z" fill="#8b5cf6" opacity="0.15"/>
  <!-- Sparkles -->
  <circle cx="180" cy="120" r="3" fill="#f59e0b" opacity="0.3"/>
  <circle cx="400" cy="90" r="2" fill="#06b6d4" opacity="0.25"/>
  <circle cx="650" cy="140" r="2.5" fill="#8b5cf6" opacity="0.2"/>
  <!-- Badge -->
  <rect x="80" y="180" width="160" height="32" rx="16" fill="#f59e0b" opacity="0.15"/>
  <text x="160" y="201" font-family="Inter, system-ui, sans-serif" font-size="13" font-weight="600" fill="#fbbf24" text-anchor="middle">ANNOUNCEMENT</text>
  <!-- Title -->
  <text x="80" y="268" font-family="Inter, system-ui, sans-serif" font-size="40" font-weight="800" fill="white">Explore Our New</text>
  <text x="80" y="320" font-family="Inter, system-ui, sans-serif" font-size="40" font-weight="800" fill="url(#amber)">Prompt Gallery</text>
  <!-- Subtitle -->
  <text x="80" y="375" font-family="Inter, system-ui, sans-serif" font-size="18" fill="#9ca3af">Curated prompts with previews. Browse, copy, customize, create.</text>
  <!-- Category pills -->
  <rect x="80" y="410" width="120" height="28" rx="14" fill="#f59e0b" opacity="0.1"/>
  <text x="140" y="429" font-family="Inter, system-ui, sans-serif" font-size="12" fill="#fbbf24" text-anchor="middle">Photography</text>
  <rect x="215" y="410" width="80" height="28" rx="14" fill="#06b6d4" opacity="0.1"/>
  <text x="255" y="429" font-family="Inter, system-ui, sans-serif" font-size="12" fill="#22d3ee" text-anchor="middle">Anime</text>
  <rect x="310" y="410" width="100" height="28" rx="14" fill="#8b5cf6" opacity="0.1"/>
  <text x="360" y="429" font-family="Inter, system-ui, sans-serif" font-size="12" fill="#a78bfa" text-anchor="middle">Fantasy</text>
  <rect x="425" y="410" width="80" height="28" rx="14" fill="#ec4899" opacity="0.1"/>
  <text x="465" y="429" font-family="Inter, system-ui, sans-serif" font-size="12" fill="#f472b6" text-anchor="middle">Sci-Fi</text>
  <!-- Bottom bar -->
  <rect x="0" y="590" width="1200" height="40" fill="#f59e0b" opacity="0.08"/>
  <text x="80" y="616" font-family="Inter, system-ui, sans-serif" font-size="14" fill="#d97706">tynkerlab.ai</text>
  <text x="1120" y="616" font-family="Inter, system-ui, sans-serif" font-size="14" fill="#6b7280" text-anchor="end">Feb 12, 2026</text>
</svg>
